<?xml version="1.0" encoding="UTF-8"?>
<svg id="uuid-a58959f7-88c7-4d94-a6e4-d21e82ee5c5c" xmlns="http://www.w3.org/2000/svg" xmlns:xlink="http://www.w3.org/1999/xlink" viewBox="0 0 180 39.5">
  <defs>
    <clipPath id="clippath">
      <rect width="179.99" height="39.49" style="fill: none; stroke-width: 0px;"/>
    </clipPath>
  </defs>
  <g id="uuid-d0e82b83-befa-49a6-9747-317c7d2e5e76">
    <g style="isolation: isolate;">
      <g style="isolation: isolate;">
        <path d="M106.97,23.73v-3.25h-3.25v-1.06h3.25v-3.25h1.08v3.25h3.25v1.06h-3.25v3.25h-1.08Z" style="fill: #000; stroke-width: 0px;"/>
      </g>
    </g>
    <g style="clip-path: url(#clippath);">
      <g>
        <path d="M59.58,35.12h-2.1c.11-.52.6-.9,1.17-.9.53,0,.94.42.93.9M60.37,35.65v-.22c0-1.25-.79-1.8-1.72-1.8-1.14,0-2.02.89-2.02,2.22s.91,2.12,2.08,2.12c.57,0,1.11-.2,1.5-.58l-.32-.52c-.31.31-.74.48-1.19.48-.7,0-1.34-.45-1.34-1.6v-.09h3.01v-.02h0ZM53.79,34.64c-.11-.26-.22-.51-.32-.86h-.85l1.98,4.34,1.93-4.34h-.82c-.09.32-.2.64-.34.96l-.46,1.09c-.14.32-.2.52-.28.73-.08-.23-.17-.41-.29-.71l-.54-1.21h0ZM50.39,31.15h-.88l.97,1.86h.53l-.62-1.86ZM51.69,35.16h-2.1c.11-.52.6-.9,1.17-.9.51.02.93.41.93.9M52.46,35.7v-.22c0-1.25-.79-1.8-1.71-1.8-1.14,0-2.02.89-2.02,2.22s.91,2.12,2.08,2.12c.57,0,1.11-.19,1.51-.58l-.32-.49c-.31.3-.74.48-1.19.48-.69,0-1.34-.45-1.34-1.6v-.16l3,.03h0ZM47.9,35.12c0-1.02-.56-1.47-1.39-1.47-.54.02-1.05.28-1.38.68l.05-.58-.79.13.05,1.02v2.96h.74v-3.14c.28-.29.67-.47,1.08-.47.62,0,.91.26.91.96v2.64h.73v-2.75.02ZM42.88,35.12h-2.12c.11-.52.6-.9,1.17-.9.51,0,.93.42.94.9M43.65,35.65v-.22c0-1.25-.79-1.8-1.71-1.8-1.14,0-2.02.89-2.02,2.22s.91,2.12,2.08,2.12c.57,0,1.11-.2,1.5-.58l-.32-.49c-.31.31-.74.48-1.19.48-.69,0-1.34-.45-1.34-1.6v-.12l3.01-.02h0ZM39.16,34.61h-2.55l-.09.67h1.78v1.69c-.43.2-.9.31-1.39.29-1.44.04-2.64-1.03-2.69-2.38v-.26c0-1.86,1.34-2.82,2.73-2.82.63,0,1.25.16,1.79.46l.15-.84c-.6-.25-1.25-.36-1.92-.35-2.01-.04-3.66,1.45-3.71,3.34v.19c-.06,1.82,1.45,3.31,3.38,3.37h.23c.77.02,1.53-.16,2.21-.49v-1.5c.02-.58.02-.99.06-1.37M62.79,20.06h-2.86c.49-1.21,1.28-3.18,1.42-3.57.17.45.31.87.62,1.54,0,0,.82,2.03.82,2.03ZM64.54,23.97c.39.91.68,1.64.97,2.51h1.68l-5.79-13.22-4.52,10.42h1.64c.25-.87.49-1.44.76-2.11l.14-.33h3.91l1.22,2.73h0ZM33.3,20.06h-2.86c.48-1.16,1.3-3.18,1.45-3.57.15.45.31.87.59,1.54,0,0,.82,2.03.82,2.03ZM34.06,21.78c.28.62.52,1.25.73,1.89h1.7l-4.56-10.4-4.53,10.42h1.62c.25-.87.49-1.44.76-2.11l.14-.33h3.91l.23.54h0ZM86.81,13.75c.09.7.12,1.41.12,2.11v7.83h5.56l.15-1.16h-4.23v-3.44h3.26l.12-1.16h-3.38v-2.96h3.86l.17-1.16-5.64-.04v-.02ZM76.31,13.75c.11.7.14,1.41.14,2.11v7.83h1.48v-4.61h5.22v4.59h1.45v-9.91h-1.48v4.13h-5.22v-4.13h-1.59ZM74.54,21.73c-.8.54-1.76.81-2.73.78-2.08,0-3.92-1.23-3.92-3.65,0-2.65,1.9-3.97,3.85-3.97.96,0,1.88.26,2.69.74l.28-1.42c-.91-.38-1.91-.57-2.92-.55-2.97-.07-5.42,2.12-5.5,4.91v.32c0,2.83,2.3,4.91,5.5,4.91,1.1.04,2.18-.22,3.12-.74l-.35-1.34h-.02ZM56.48,16.61h1.08l1.23-2.86h-1.54l-.77,2.86ZM50.05,19.4h1.62c2.32,0,3.32-1.16,3.32-2.91,0-1.5-.93-2.75-3.18-2.75h-1.85c.05.44.06.89.03,1.32l.06,4.33h0ZM53.65,16.5c0,1.16-.62,1.83-1.98,1.83h-.34v-3.49h.39c1.27,0,1.93.55,1.93,1.66M37.6,13.77c.12.68.17,1.38.17,2.08v7.85h1.36v-7.74l7.41,8.09v-10.26h-1.36v4.4c0,.94,0,1.74.05,2.25-.34-.41-.66-.81-1.19-1.39l-4.91-5.26h-1.53v-.02ZM24.33,16.45c0,.9-.71,1.51-1.85,1.51h-1.34v-3.02h1.56c.8-.09,1.54.47,1.64,1.22v.29M15.33,20.06h-2.86l.83-2.03c.28-.65.51-1.28.62-1.54.17.45.31.87.62,1.54,0,0,.79,2.03.79,2.03ZM16.08,21.78c.28.62.53,1.25.73,1.89h1.71l-4.57-10.4-4.53,10.42h1.64c.25-.87.49-1.44.76-2.11l.14-.33h3.91l.22.54h0ZM11.29,24.41c-1.13.6-2.41.9-3.71.87-3.26,0-5.93-1.86-5.93-5.43s2.75-5.67,5.73-5.67c1.27,0,2.52.28,3.65.84l.18-1.5c-1.2-.47-2.49-.7-3.8-.67-3.95-.12-7.27,2.8-7.41,6.53v.45c0,3.9,2.95,6.74,7.6,6.74,1.36.02,2.72-.28,3.94-.84l-.25-1.32ZM19.68,23.68h1.45v-4.55h1.28l4.32,7.37h1.76l-3.57-5.81c-.37-.58-.86-1.31-1.13-1.74,1.2-.28,2.04-1.32,1.98-2.5,0-1.74-1.17-2.69-2.98-2.69h-3.26c.09.68.14,1.38.14,2.08v7.85h0Z" style="fill: #000; stroke-width: 0px;"/>
        <path d="M130.55,39.23v-6.41h-4.41v1.72h2.17v.15c0,1.64-.64,2.82-2.12,2.82-1.35,0-2.23-1.1-2.23-4.04s.83-4.04,2.3-4.04c1.12,0,1.67.68,1.79,1.93l2.47-.32c-.11-1.56-1.22-3.58-4.24-3.58-3.23,0-4.97,2.25-4.97,6.02,0,3.99,2,6.02,4.73,6.02,1.19.03,2.26-.64,2.69-1.69h.03l.28,1.43h1.51ZM138.49,36.76c-.12.67-.76,1.14-1.48,1.09-1.03,0-1.71-.58-1.74-1.99h5.41c.03-.29.05-.58.05-.88,0-2.4-1.51-3.92-3.76-3.92-2.41,0-4,1.61-4,4.17s1.43,4.23,4.02,4.23c2.21,0,3.23-1.3,3.5-2.46l-1.99-.23h-.01ZM135.31,34.51c0-1.12.64-1.85,1.59-1.85,1.06,0,1.54.7,1.55,1.85h-3.14ZM145.25,32.27c0-.34-.03-.71-.07-1.04h-2.19c.05.81.09,1.74.09,2.49v5.5h2.31v-4.41c0-1.49.81-1.99,1.59-1.99.4-.02.77.15,1,.45.23.37.33.8.29,1.23v4.7h2.31v-5.06c.04-.74-.17-1.48-.6-2.11-.55-.7-1.44-1.07-2.36-1-.96-.02-1.84.46-2.31,1.25l-.06-.02h0ZM158.35,36.75c-.12.67-.76,1.14-1.48,1.09-1.06,0-1.71-.58-1.74-1.99h5.38c.04-.29.06-.58.05-.88,0-2.4-1.51-3.92-3.76-3.92-2.4,0-3.98,1.61-3.98,4.17s1.43,4.23,4.02,4.23c2.21,0,3.23-1.3,3.5-2.46l-1.99-.23h0ZM155.15,34.5c0-1.12.64-1.85,1.59-1.85,1.06,0,1.53.7,1.55,1.85h-3.14ZM158.8,30.43l.47-.86-4.06-2.46-.83,1.7,4.42,1.61h0ZM164.3,31.28h-2.44l3.11,7.97h2.09l3.11-7.97h-2.38l-1.13,3.49c-.24.74-.38,1.28-.53,1.99h-.04c-.18-.7-.31-1.24-.53-1.99l-1.24-3.49h-.02ZM177.02,36.76c-.12.67-.76,1.14-1.48,1.09-1.03,0-1.71-.58-1.74-1.99h5.38c.03-.29.05-.58.05-.88,0-2.4-1.52-3.92-3.76-3.92-2.39,0-3.98,1.61-3.98,4.17s1.43,4.23,4.02,4.23c2.21,0,3.23-1.3,3.5-2.46l-1.98-.23h-.01ZM173.81,34.51c0-1.12.64-1.85,1.59-1.85,1.06,0,1.54.7,1.55,1.85h-3.14Z" style="fill: #000; stroke-width: 0px;"/>
        <path d="M133.43,16.71h-11.23v.94h11.23v-.94ZM145.95,23v-11.51h-2.58v4.64h-3.43v-4.64h-2.59v11.52h2.59v-4.9h3.43v4.9h2.58ZM157.03,23v-1.99h-5.05v-3h4.12v-1.86h-4.12v-2.66h5.05v-1.99h-7.65v11.52h7.65v-.02ZM168.82,23l-3.86-11.51h-2.45l-3.85,11.52h2.61l.62-2.13h3.6l.6,2.13h2.73ZM164.96,19.02h-2.53l.65-2.34c.21-.7.43-1.55.6-2.42.19.86.43,1.7.62,2.4l.66,2.35h0ZM179.98,17.05c0-2.29-.81-4.44-2.97-5.24-.65-.23-1.33-.33-2.02-.32h-4.03v11.52h4.02c.69,0,1.37-.09,2.02-.3,2.24-.76,3-2.9,3-5.66M177.39,17.25c0,2.21-.62,3.85-2.42,3.85h-1.45v-7.69h1.2c2.19,0,2.65,1.91,2.65,3.84" style="fill: #000; stroke-width: 0px;"/>
      </g>
    </g>
  </g>
</svg>